<svg xmlns="http://www.w3.org/2000/svg" xmlns:xlink="http://www.w3.org/1999/xlink" width="500" zoomAndPan="magnify" viewBox="0 0 375 374.999991" height="500" preserveAspectRatio="xMidYMid meet" version="1.0"><defs><g/><clipPath id="05f3c153e5"><path d="M 85 88.035156 L 314 88.035156 L 314 325.785156 L 85 325.785156 Z M 85 88.035156 " clip-rule="nonzero"/></clipPath><clipPath id="327ec160b3"><path d="M 156.835938 156.707031 L 241.585938 156.707031 L 241.585938 241.457031 L 156.835938 241.457031 Z M 156.835938 156.707031 " clip-rule="nonzero"/></clipPath></defs><g clip-path="url(#05f3c153e5)"><path fill="#d447a2" d="M 308.664062 206.964844 C 308.664062 194.675781 316.378906 181.285156 312.796875 170.207031 C 309.046875 158.6875 294.828125 152.460938 287.886719 142.871094 C 280.832031 133.226562 279.289062 117.796875 269.585938 110.742188 C 260 103.796875 244.898438 106.992188 233.378906 103.246094 C 222.300781 99.664062 211.996094 88.035156 199.707031 88.035156 C 187.414062 88.035156 177.109375 99.664062 166.03125 103.246094 C 154.515625 106.992188 139.414062 103.742188 129.824219 110.742188 C 120.125 117.796875 118.527344 133.226562 111.527344 142.871094 C 104.582031 152.460938 90.308594 158.6875 86.617188 170.207031 C 83.035156 181.285156 90.75 194.675781 90.75 206.964844 C 90.75 219.257812 83.035156 232.648438 86.617188 243.726562 C 90.308594 255.1875 104.527344 261.417969 111.527344 271.007812 C 118.582031 280.652344 120.125 296.136719 129.824219 303.136719 C 139.414062 310.082031 154.515625 306.882812 166.03125 310.632812 C 177.109375 314.214844 187.414062 325.84375 199.707031 325.84375 C 211.996094 325.84375 222.300781 314.214844 233.378906 310.632812 C 244.898438 306.882812 260 310.136719 269.585938 303.136719 C 279.230469 296.082031 280.832031 280.652344 287.886719 271.007812 C 294.828125 261.417969 309.101562 255.1875 312.796875 243.671875 C 316.433594 232.59375 308.664062 219.257812 308.664062 206.964844 Z M 308.664062 206.964844 " fill-opacity="1" fill-rule="nonzero"/></g><path fill="#fee354" d="M 199.707031 314.378906 C 192.816406 314.378906 186.699219 310.523438 180.746094 306.773438 C 176.835938 304.292969 173.085938 301.925781 169.230469 300.710938 C 165.152344 299.390625 160.410156 299.058594 155.835938 298.726562 C 148.949219 298.230469 141.839844 297.734375 136.546875 293.878906 C 131.203125 289.964844 128.5 283.351562 125.910156 276.902344 C 124.203125 272.660156 122.4375 268.304688 119.957031 264.890625 C 117.535156 261.527344 113.953125 258.550781 110.480469 255.628906 C 105.132812 251.167969 99.566406 246.535156 97.527344 240.144531 C 95.542969 234.027344 97.253906 227.191406 98.90625 220.578125 C 100.007812 216.058594 101.21875 211.375 101.21875 206.964844 C 101.21875 202.558594 100.0625 197.871094 98.90625 193.355469 C 97.253906 186.742188 95.542969 179.851562 97.527344 173.789062 C 99.621094 167.394531 105.132812 162.765625 110.480469 158.300781 C 113.953125 155.4375 117.535156 152.40625 119.957031 149.042969 C 122.4375 145.625 124.203125 141.273438 125.910156 137.027344 C 128.5 130.582031 131.203125 123.96875 136.546875 120.054688 C 141.839844 116.195312 148.949219 115.699219 155.835938 115.203125 C 160.410156 114.875 165.152344 114.542969 169.230469 113.222656 C 173.085938 111.953125 176.777344 109.636719 180.746094 107.160156 C 186.699219 103.410156 192.816406 99.554688 199.707031 99.554688 C 206.59375 99.554688 212.710938 103.410156 218.664062 107.160156 C 222.578125 109.636719 226.324219 112.007812 230.183594 113.222656 C 234.261719 114.542969 239 114.875 243.574219 115.203125 C 250.464844 115.699219 257.574219 116.195312 262.863281 120.054688 C 268.210938 123.96875 270.910156 130.582031 273.5 137.027344 C 275.210938 141.273438 276.972656 145.625 279.453125 149.042969 C 281.878906 152.40625 285.460938 155.382812 288.933594 158.300781 C 294.277344 162.765625 299.84375 167.394531 301.882812 173.789062 C 303.867188 179.90625 302.160156 186.742188 300.503906 193.355469 C 299.402344 197.871094 298.191406 202.558594 298.191406 206.964844 C 298.191406 211.375 299.347656 216.058594 300.503906 220.578125 C 302.160156 227.191406 303.867188 234.082031 301.882812 240.144531 C 299.789062 246.535156 294.277344 251.167969 288.933594 255.628906 C 285.460938 258.496094 281.878906 261.527344 279.453125 264.890625 C 276.972656 268.304688 275.210938 272.660156 273.5 276.902344 C 270.910156 283.351562 268.210938 289.964844 262.863281 293.878906 C 257.574219 297.734375 250.464844 298.230469 243.574219 298.726562 C 239 299.058594 234.261719 299.390625 230.183594 300.710938 C 226.324219 301.980469 222.632812 304.292969 218.664062 306.773438 C 212.710938 310.46875 206.59375 314.378906 199.707031 314.378906 Z M 199.707031 101.207031 C 193.3125 101.207031 187.359375 104.953125 181.628906 108.535156 C 177.769531 110.960938 173.804688 113.496094 169.726562 114.765625 C 165.425781 116.140625 160.632812 116.472656 155.945312 116.804688 C 149.003906 117.300781 142.445312 117.738281 137.484375 121.320312 C 132.523438 124.960938 129.933594 131.351562 127.398438 137.582031 C 125.636719 141.878906 123.871094 146.398438 121.226562 149.980469 C 118.636719 153.507812 115 156.539062 111.472656 159.515625 C 106.289062 163.8125 100.945312 168.277344 99.015625 174.230469 C 97.195312 179.851562 98.742188 186.1875 100.449219 192.914062 C 101.605469 197.542969 102.761719 202.335938 102.761719 206.910156 C 102.761719 211.484375 101.550781 216.28125 100.449219 220.910156 C 98.796875 227.632812 97.195312 233.917969 99.015625 239.59375 C 100.945312 245.542969 106.289062 250.007812 111.472656 254.308594 C 115 257.285156 118.691406 260.316406 121.226562 263.84375 C 123.816406 267.425781 125.636719 271.886719 127.398438 276.242188 C 129.878906 282.46875 132.46875 288.863281 137.484375 292.5 C 142.390625 296.082031 148.949219 296.523438 155.945312 297.019531 C 160.632812 297.351562 165.480469 297.679688 169.726562 299.058594 C 173.804688 300.382812 177.769531 302.863281 181.628906 305.285156 C 187.359375 308.921875 193.3125 312.617188 199.707031 312.617188 C 206.097656 312.617188 212.050781 308.867188 217.78125 305.285156 C 221.640625 302.863281 225.609375 300.328125 229.6875 299.058594 C 233.984375 297.679688 238.78125 297.351562 243.464844 297.019531 C 250.410156 296.523438 256.96875 296.082031 261.925781 292.5 C 266.886719 288.863281 269.476562 282.46875 272.011719 276.242188 C 273.777344 271.945312 275.539062 267.425781 278.183594 263.84375 C 280.777344 260.316406 284.414062 257.285156 287.941406 254.308594 C 293.121094 250.007812 298.464844 245.542969 300.394531 239.59375 C 302.214844 233.972656 300.671875 227.632812 298.960938 220.910156 C 297.804688 216.28125 296.648438 211.484375 296.648438 206.910156 C 296.648438 202.28125 297.859375 197.542969 298.960938 192.914062 C 300.617188 186.1875 302.214844 179.90625 300.394531 174.230469 C 298.464844 168.277344 293.121094 163.8125 287.941406 159.515625 C 284.414062 156.539062 280.71875 153.507812 278.183594 149.980469 C 275.59375 146.398438 273.777344 141.933594 272.011719 137.582031 C 269.53125 131.351562 266.941406 124.960938 261.925781 121.320312 C 257.023438 117.738281 250.464844 117.300781 243.464844 116.804688 C 238.78125 116.472656 233.929688 116.140625 229.6875 114.765625 C 225.609375 113.441406 221.640625 110.960938 217.78125 108.535156 C 211.996094 104.898438 206.097656 101.207031 199.707031 101.207031 Z M 199.707031 101.207031 " fill-opacity="1" fill-rule="nonzero"/><path fill="#000000" d="M 220.820312 226.566406 L 203.097656 226.566406 L 200.664062 229.003906 C 200.226562 229.441406 199.632812 229.6875 199.015625 229.6875 L 186.554688 229.6875 C 185.933594 229.6875 185.339844 229.441406 184.902344 229.003906 L 182.472656 226.566406 L 164.75 226.566406 C 164.320312 226.566406 163.96875 226.917969 163.96875 227.347656 L 163.96875 232.03125 C 163.96875 233.324219 165.019531 234.375 166.308594 234.375 L 219.261719 234.375 C 220.550781 234.375 221.597656 233.324219 221.597656 232.03125 L 221.597656 227.347656 C 221.597656 226.917969 221.246094 226.566406 220.820312 226.566406 " fill-opacity="1" fill-rule="nonzero"/><g clip-path="url(#327ec160b3)"><path fill="#000000" d="M 226.269531 227.347656 L 226.269531 232.03125 C 226.269531 235.90625 223.125 239.058594 219.261719 239.058594 L 166.308594 239.058594 C 162.441406 239.058594 159.296875 235.90625 159.296875 232.03125 L 159.296875 227.347656 C 159.296875 224.597656 161.332031 222.316406 163.96875 221.9375 L 163.96875 194.554688 C 163.96875 190.679688 167.117188 187.527344 170.980469 187.527344 L 194.625 187.527344 C 194.128906 185.65625 193.875 183.71875 193.875 181.75 C 193.875 169.203125 204.101562 159.007812 216.632812 159.105469 C 228.917969 159.199219 238.945312 169.253906 239.039062 181.574219 C 239.125 192.363281 231.636719 201.449219 221.597656 203.800781 L 221.597656 221.9375 C 224.234375 222.316406 226.269531 224.597656 226.269531 227.347656 Z M 241.433594 181.554688 C 241.328125 167.957031 230.210938 156.8125 216.652344 156.707031 L 216.457031 156.707031 C 202.683594 156.707031 191.480469 167.941406 191.480469 181.75 C 191.480469 182.882812 191.558594 184.011719 191.710938 185.128906 L 170.980469 185.128906 C 165.796875 185.128906 161.578125 189.355469 161.578125 194.554688 L 161.578125 220.160156 C 158.808594 221.394531 156.90625 224.195312 156.90625 227.347656 L 156.90625 232.03125 C 156.90625 237.226562 161.125 241.457031 166.308594 241.457031 L 219.261719 241.457031 C 224.445312 241.457031 228.664062 237.226562 228.664062 232.03125 L 228.664062 227.347656 C 228.664062 224.195312 226.757812 221.394531 223.992188 220.160156 L 223.992188 205.625 C 234.285156 202.34375 241.515625 192.511719 241.433594 181.554688 " fill-opacity="1" fill-rule="nonzero"/></g><path fill="#000000" d="M 185.09375 222.566406 L 187.523438 225.003906 L 198.046875 225.003906 L 200.476562 222.566406 C 200.914062 222.128906 201.507812 221.882812 202.128906 221.882812 L 216.925781 221.882812 L 216.925781 204.386719 C 216.769531 204.390625 216.613281 204.390625 216.457031 204.390625 C 214.300781 204.390625 212.152344 204.074219 210.058594 203.453125 L 196.882812 207.417969 C 194.859375 208.023438 193.136719 205.847656 194.183594 204.011719 L 198.824219 195.863281 C 197.910156 194.71875 197.113281 193.492188 196.441406 192.210938 L 170.980469 192.210938 C 169.691406 192.210938 168.644531 193.261719 168.644531 194.554688 L 168.644531 221.882812 L 183.4375 221.882812 C 184.058594 221.882812 184.652344 222.128906 185.09375 222.566406 " fill-opacity="1" fill-rule="nonzero"/><path fill="#000000" d="M 219.996094 181.566406 C 219.636719 181.78125 218.792969 182.382812 218.792969 183.378906 L 218.792969 184.871094 C 218.792969 186.164062 217.75 187.214844 216.457031 187.214844 C 215.167969 187.214844 214.121094 186.164062 214.121094 184.871094 L 214.121094 183.378906 C 214.121094 181.007812 215.433594 178.816406 217.636719 177.527344 C 218.351562 177.105469 218.792969 176.332031 218.792969 175.503906 C 218.792969 174.210938 217.746094 173.160156 216.457031 173.160156 C 215.167969 173.160156 214.121094 174.210938 214.121094 175.503906 C 214.121094 176.796875 213.078125 177.84375 211.785156 177.84375 C 210.496094 177.84375 209.449219 176.796875 209.449219 175.503906 C 209.449219 171.628906 212.59375 168.476562 216.457031 168.476562 C 220.320312 168.476562 223.464844 171.628906 223.464844 175.503906 C 223.464844 177.988281 222.136719 180.3125 219.996094 181.566406 Z M 216.457031 196.582031 C 215.167969 196.582031 214.121094 195.535156 214.121094 194.242188 C 214.121094 192.949219 215.167969 191.898438 216.457031 191.898438 C 217.75 191.898438 218.792969 192.949219 218.792969 194.242188 C 218.792969 195.535156 217.75 196.582031 216.457031 196.582031 Z M 234.355469 181.039062 C 233.996094 171.71875 226.460938 164.164062 217.164062 163.804688 C 206.96875 163.40625 198.546875 171.609375 198.546875 181.75 C 198.546875 186.296875 200.261719 190.640625 203.378906 193.988281 C 204.082031 194.738281 204.210938 195.859375 203.703125 196.75 L 201.140625 201.246094 L 209.402344 198.757812 C 209.863281 198.621094 210.355469 198.628906 210.808594 198.78125 C 212.65625 199.394531 214.554688 199.707031 216.457031 199.707031 C 226.570312 199.707031 234.75 191.261719 234.355469 181.039062 " fill-opacity="1" fill-rule="nonzero"/><g fill="#000000" fill-opacity="1"><g transform="translate(134.581175, 168.281018)"><g><path d="M -0.375 -16.492188 C -0.523438 -16.457031 -0.582031 -16.347656 -0.664062 -16.222656 C -0.746094 -16.097656 -0.8125 -15.949219 -0.878906 -15.800781 C -0.996094 -15.582031 -1.128906 -15.289062 -1.199219 -15 C -1.292969 -14.699219 -1.371094 -14.371094 -1.429688 -14.023438 L -1.625 -14.398438 C -1.699219 -14.550781 -1.695312 -14.789062 -1.679688 -15.105469 C -1.632812 -15.476562 -1.503906 -15.871094 -1.25 -16.285156 L -0.949219 -16.871094 L -0.621094 -17.371094 C -0.507812 -17.550781 -0.472656 -17.644531 -0.472656 -17.644531 C -0.503906 -17.691406 -0.542969 -17.699219 -0.609375 -17.648438 L -0.882812 -17.460938 C -1.027344 -17.324219 -1.09375 -17.277344 -1.1875 -17.214844 C -1.453125 -17.0625 -1.53125 -17.074219 -1.679688 -17.140625 L -1.929688 -17.40625 C -2.035156 -17.503906 -2.136719 -17.601562 -2.183594 -17.667969 L -2.527344 -18.207031 C -2.640625 -18.367188 -2.757812 -18.488281 -2.828125 -18.542969 C -2.976562 -18.609375 -3.152344 -18.617188 -3.359375 -18.574219 L -3.453125 -18.511719 C -3.925781 -17.738281 -4.289062 -16.945312 -4.53125 -16.128906 C -4.78125 -15.273438 -4.933594 -14.421875 -4.976562 -13.613281 C -5.027344 -12.761719 -4.953125 -11.933594 -4.867188 -11.078125 C -4.761719 -10.203125 -4.542969 -9.40625 -4.257812 -8.65625 C -3.945312 -7.824219 -3.582031 -7.058594 -3.070312 -6.332031 C -2.816406 -5.964844 -2.539062 -5.617188 -2.144531 -5.25 C -1.820312 -4.933594 -1.484375 -4.59375 -1.070312 -4.339844 C -0.660156 -4.046875 -0.203125 -3.828125 0.328125 -3.652344 C 0.816406 -3.488281 1.335938 -3.375 1.84375 -3.324219 C 2.378906 -3.292969 2.863281 -3.324219 3.378906 -3.414062 C 3.886719 -3.464844 4.328125 -3.605469 4.757812 -3.769531 C 5.277344 -3.996094 5.796875 -4.222656 6.269531 -4.519531 L 6.929688 -4.980469 C 7.179688 -5.15625 7.390625 -5.339844 7.648438 -5.550781 C 8.109375 -6.011719 8.429688 -6.472656 8.734375 -6.957031 C 8.890625 -7.167969 9.015625 -7.425781 9.203125 -7.691406 C 9.296875 -7.65625 9.40625 -7.597656 9.507812 -7.5 C 10.34375 -7.03125 11.074219 -6.523438 11.753906 -5.984375 C 11.867188 -6.164062 12.027344 -6.273438 12.078125 -6.445312 C 12.203125 -6.703125 12.257812 -7.011719 12.492188 -7.210938 C 12.605469 -7.289062 12.789062 -7.316406 12.898438 -7.359375 C 13.054688 -7.46875 13.082031 -7.625 13.226562 -7.757812 L 13.496094 -8.390625 C 13.597656 -8.492188 13.679688 -8.617188 13.769531 -8.679688 C 13.882812 -8.761719 13.980469 -8.625 14.070312 -8.6875 C 13.621094 -9.085938 13.121094 -9.414062 12.589844 -9.6875 C 11.886719 -10.113281 11.214844 -10.589844 10.519531 -10.953125 L 10.035156 -11.257812 C 10.078125 -11.390625 10.066406 -11.550781 10.070312 -11.691406 C 10.117188 -12.738281 10 -13.777344 9.707031 -14.828125 C 9.5625 -15.371094 9.375 -15.882812 9.1875 -16.398438 L 9.128906 -16.527344 C 8.878906 -17.128906 8.59375 -17.679688 8.230469 -18.203125 C 7.847656 -18.75 7.457031 -19.257812 6.976562 -19.699219 C 6.519531 -20.160156 5.972656 -20.558594 5.355469 -20.90625 C 5.003906 -21.066406 4.769531 -21.210938 4.410156 -21.332031 C 4.207031 -21.429688 4.078125 -21.472656 3.851562 -21.550781 C 3.71875 -21.59375 3.527344 -21.628906 3.371094 -21.65625 C 2.96875 -21.746094 2.574219 -21.777344 2.152344 -21.753906 C 1.773438 -21.757812 1.34375 -21.695312 0.921875 -21.570312 C 0.515625 -21.421875 0.203125 -21.339844 -0.0859375 -21.171875 C -0.371094 -21.039062 -0.636719 -20.886719 -0.886719 -20.710938 C -1.390625 -20.460938 -1.714844 -20.199219 -2.058594 -20.0625 C -2.019531 -20.054688 -1.988281 -20.007812 -1.957031 -19.964844 C -1.925781 -19.917969 -1.894531 -19.871094 -1.902344 -19.835938 L -1.835938 -19.644531 C -1.785156 -19.574219 -1.746094 -19.566406 -1.6875 -19.578125 C -1.484375 -19.480469 -1.230469 -19.457031 -0.988281 -19.453125 C -0.796875 -19.417969 -0.6875 -19.359375 -0.640625 -19.292969 C -0.605469 -19.246094 -0.574219 -19.199219 -0.582031 -19.164062 C -0.589844 -19.125 -0.671875 -19 -0.828125 -18.785156 C -0.941406 -18.605469 -1.09375 -18.535156 -1.113281 -18.417969 C -1.15625 -18.285156 -1.152344 -18.1875 -1.105469 -18.117188 C -1.058594 -18.050781 -0.957031 -17.949219 -0.855469 -17.851562 C -0.816406 -17.847656 -0.691406 -17.863281 -0.511719 -17.753906 C -0.320312 -17.71875 -0.09375 -17.640625 0.0546875 -17.574219 C 0.140625 -17.496094 0.210938 -17.445312 0.242188 -17.398438 C 0.292969 -17.332031 0.300781 -17.269531 0.269531 -17.214844 C 0.28125 -17.152344 0.210938 -17.105469 0.160156 -17.035156 C 0.0625 -16.933594 -0.152344 -16.851562 -0.125 -16.667969 C 0.191406 -16.890625 0.808594 -17.320312 1.089844 -17.449219 C 1.296875 -17.59375 1.472656 -17.679688 1.644531 -17.769531 L 2.035156 -17.941406 C 2.097656 -17.949219 2.179688 -17.976562 2.320312 -17.96875 L 2.691406 -17.925781 L 2.957031 -17.839844 L 3.203125 -17.773438 C 3.382812 -17.664062 3.476562 -17.625 3.679688 -17.53125 C 4.09375 -17.277344 4.488281 -16.910156 4.875 -16.402344 C 5.210938 -15.921875 5.5 -15.414062 5.757812 -14.847656 C 5.972656 -14.25 6.109375 -13.667969 6.207031 -13.089844 L 4.839844 -13.59375 C 4.886719 -13.1875 5.332031 -13.226562 5.753906 -13.011719 C 5.679688 -12.925781 5.605469 -12.839844 5.535156 -12.792969 C 5.46875 -12.742188 5.40625 -12.734375 5.304688 -12.730469 C 5.066406 -12.734375 4.84375 -12.953125 4.605469 -12.957031 C 4.566406 -12.960938 4.546875 -12.945312 4.5 -12.914062 C 4.410156 -12.851562 4.554688 -12.785156 4.597656 -12.578125 C 4.644531 -12.371094 4.484375 -12.160156 4.375 -11.980469 C 4.117188 -11.425781 3.664062 -11.007812 3.558594 -10.425781 C 4.355469 -10.066406 5.035156 -9.726562 5.757812 -9.417969 L 5.292969 -8.722656 C 5.09375 -8.480469 4.925781 -8.328125 4.738281 -8.164062 L 4.394531 -7.925781 L 4 -7.714844 L 3.21875 -7.375 L 2.492188 -7.203125 C 2.253906 -7.207031 2.035156 -7.222656 1.84375 -7.257812 C 1.640625 -7.355469 1.445312 -7.386719 1.265625 -7.5 C 1.0625 -7.59375 0.914062 -7.761719 0.71875 -7.894531 C 0.441406 -8.144531 0.175781 -8.429688 -0.03125 -8.726562 C -0.144531 -8.886719 -0.238281 -9.023438 -0.328125 -9.199219 C -0.601562 -9.6875 -0.824219 -10.242188 -0.984375 -10.910156 C -1.128906 -11.457031 -1.183594 -11.925781 -1.1875 -12.464844 L -1.226562 -12.808594 C -1.238281 -13.648438 -1.117188 -14.445312 -0.910156 -15.167969 C -0.824219 -15.53125 -0.570312 -16.1875 -0.375 -16.492188 Z M -0.375 -16.492188 "/></g></g></g><g fill="#000000" fill-opacity="1"><g transform="translate(155.744279, 154.675913)"><g><path d="M -3.996094 -16.78125 L -4.015625 -16.683594 C -3.832031 -16.128906 -3.652344 -15.515625 -3.5 -14.886719 C -3.363281 -14.226562 -3.210938 -13.597656 -3.054688 -12.972656 C -2.910156 -12.285156 -2.765625 -11.683594 -2.574219 -10.953125 C -2.398438 -10.277344 -2.191406 -9.582031 -1.964844 -8.925781 L -1.515625 -7.757812 C -1.402344 -7.472656 -1.324219 -7.265625 -1.207031 -7.042969 C -1.015625 -6.550781 -0.753906 -6.175781 -0.523438 -5.816406 C -0.417969 -5.621094 -0.304688 -5.484375 -0.148438 -5.308594 C -0.136719 -5.28125 -0.0898438 -5.238281 -0.0625 -5.160156 L 0.0195312 -5.105469 L 0.105469 -4.957031 L 0.246094 -4.832031 C 0.503906 -4.546875 0.703125 -4.265625 1.003906 -4.023438 C 1.335938 -3.707031 1.613281 -3.457031 1.976562 -3.210938 C 2.351562 -2.9375 2.765625 -2.710938 3.257812 -2.511719 C 3.707031 -2.359375 4.222656 -2.261719 4.691406 -2.203125 C 5.296875 -2.171875 5.839844 -2.230469 6.363281 -2.34375 C 6.679688 -2.378906 6.898438 -2.433594 7.140625 -2.496094 L 7.503906 -2.636719 L 7.667969 -2.671875 L 7.851562 -2.742188 C 8.34375 -2.933594 8.796875 -3.136719 9.265625 -3.46875 C 9.488281 -3.585938 9.71875 -3.761719 9.972656 -3.953125 C 10.21875 -4.164062 10.394531 -4.324219 10.609375 -4.617188 C 10.804688 -4.808594 10.96875 -5.082031 11.136719 -5.414062 C 11.289062 -5.710938 11.453125 -5.984375 11.523438 -6.339844 C 11.597656 -6.605469 11.664062 -6.902344 11.71875 -7.21875 C 11.710938 -7.546875 11.761719 -7.800781 11.726562 -8.117188 C 11.667969 -8.660156 11.609375 -9.113281 11.496094 -9.636719 L 11.316406 -10.105469 C 11.277344 -10.207031 11.292969 -10.242188 11.28125 -10.269531 C 11.234375 -10.550781 11.167969 -10.792969 11.078125 -11.027344 L 10.835938 -11.734375 L 9.984375 -13.699219 L 9.691406 -14.691406 L 9.550781 -15.054688 C 9.414062 -15.476562 9.246094 -15.917969 9.054688 -16.410156 C 8.730469 -17.328125 8.378906 -18.234375 8.027344 -19.140625 L 6.980469 -21.835938 C 6.949219 -21.765625 6.910156 -21.71875 6.855469 -21.699219 C 6.777344 -21.667969 6.742188 -21.683594 6.664062 -21.65625 C 6.585938 -21.625 6.546875 -21.578125 6.523438 -21.480469 C 6.425781 -21.117188 6.425781 -20.578125 6.191406 -20.488281 C 6.140625 -20.46875 6.117188 -20.457031 6.078125 -20.472656 C 5.867188 -20.480469 5.640625 -20.988281 5.410156 -21.050781 C 5.328125 -21.105469 5.265625 -21.113281 5.214844 -21.09375 C 5.1875 -21.082031 5.09375 -21.015625 4.996094 -20.890625 C 4.867188 -20.839844 4.683594 -20.082031 4.398438 -19.972656 C 4.214844 -19.902344 4.164062 -20.417969 3.792969 -20.601562 L 3.863281 -20.421875 C 4.402344 -19.109375 4.875 -17.890625 5.367188 -16.621094 L 6.671875 -13.253906 L 6.71875 -12.972656 L 7.128906 -11.910156 C 7.285156 -11.582031 7.425781 -11.222656 7.546875 -10.910156 C 7.820312 -10.210938 8.03125 -9.664062 8.183594 -9.039062 C 8.277344 -8.71875 8.324219 -8.4375 8.339844 -8.175781 C 8.375 -7.921875 8.371094 -7.710938 8.324219 -7.515625 C 8.316406 -7.304688 8.238281 -7.125 8.175781 -6.980469 L 7.789062 -6.59375 C 7.621094 -6.410156 7.425781 -6.300781 7.148438 -6.164062 L 6.320312 -5.84375 C 6.023438 -5.761719 5.792969 -5.671875 5.527344 -5.65625 C 5.253906 -5.671875 5.027344 -5.640625 4.804688 -5.675781 C 4.636719 -5.730469 4.449219 -5.746094 4.277344 -5.886719 C 4.046875 -5.949219 3.921875 -6.109375 3.652344 -6.273438 C 3.457031 -6.464844 3.226562 -6.675781 3.011719 -6.917969 L 2.660156 -7.289062 L 2.550781 -7.425781 L 2.464844 -7.570312 C 2.089844 -7.992188 1.835938 -8.578125 1.578125 -9.164062 L 1.398438 -9.632812 C 1.226562 -10.070312 1.0625 -10.574219 0.898438 -11.078125 L 0.351562 -13.101562 C 0.128906 -14.058594 -0.0859375 -14.925781 -0.359375 -15.863281 L -0.742188 -17.238281 C -0.855469 -17.757812 -1.054688 -18.191406 -1.253906 -18.707031 C -1.460938 -18.476562 -0.804688 -17.242188 -0.203125 -14.375 C -0.417969 -14.621094 -0.566406 -14.621094 -0.796875 -15.21875 L -0.855469 -15.375 C -0.988281 -15.710938 -1.101562 -16.234375 -1.265625 -16.738281 C -1.371094 -17.082031 -1.457031 -17.464844 -1.578125 -17.777344 C -1.648438 -17.957031 -1.699219 -18.089844 -1.753906 -18.15625 L -1.9375 -18.472656 C -1.964844 -18.460938 -1.980469 -18.425781 -1.976562 -18.339844 C -1.929688 -18.148438 -1.878906 -17.78125 -1.886719 -17.570312 C -1.851562 -17.253906 -1.972656 -17.179688 -2.074219 -17.136719 C -2.179688 -17.097656 -2.3125 -17.136719 -2.390625 -17.105469 C -2.6875 -17.019531 -2.9375 -17.132812 -3.261719 -17.125 C -3.476562 -17.132812 -3.613281 -17.109375 -3.691406 -17.078125 C -3.820312 -17.027344 -3.929688 -16.925781 -3.996094 -16.78125 Z M -3.996094 -16.78125 "/></g></g></g><g fill="#000000" fill-opacity="1"><g transform="translate(177.610892, 147.3619)"><g><path d="M -0.476562 -17.246094 L -0.472656 -17.21875 C -0.0195312 -14.8125 0.246094 -12.347656 0.59375 -9.898438 C 0.78125 -8.351562 1.039062 -6.902344 1.226562 -5.351562 C 1.453125 -3.585938 1.683594 -1.820312 1.980469 0.015625 C 2.179688 -0.128906 2.425781 -0.00390625 2.59375 -0.175781 C 2.859375 -0.421875 3.070312 -0.683594 3.382812 -0.652344 C 3.582031 -0.660156 3.738281 -0.40625 3.894531 -0.320312 C 4.101562 -0.273438 4.28125 -0.363281 4.46875 -0.421875 C 4.550781 -0.4375 5.277344 -1.128906 5.773438 -0.539062 C 5.632812 -1.503906 5.457031 -2.347656 5.285156 -3.304688 C 5.050781 -4.644531 4.898438 -5.972656 4.804688 -7.3125 C 4.628906 -8.777344 4.519531 -10.195312 4.296875 -11.625 C 4.078125 -13.027344 3.824219 -14.308594 3.601562 -15.707031 C 3.472656 -16.617188 3.1875 -17.414062 3.039062 -18.261719 C 2.816406 -17.769531 3.101562 -17.113281 3.222656 -16.261719 C 2.996094 -16.417969 2.828125 -16.417969 2.660156 -16.726562 C 2.515625 -17.066406 2.546875 -17.695312 2.375 -18.03125 C 2.175781 -18.363281 1.5625 -17.519531 1.34375 -17.480469 C 0.769531 -17.378906 0.0546875 -17.59375 -0.476562 -17.246094 Z M -0.476562 -17.246094 "/></g></g></g><g fill="#000000" fill-opacity="1"><g transform="translate(193.007427, 145.021916)"><g><path d="M 14.640625 -11.292969 C 14.640625 -11.378906 14.589844 -11.488281 14.5625 -11.601562 L 14.351562 -12.300781 C 14.167969 -12.886719 13.953125 -13.335938 13.738281 -13.839844 C 13.574219 -14.089844 13.273438 -14.375 13.054688 -14.628906 C 12.921875 -14.933594 12.453125 -15.222656 12.207031 -15.53125 C 11.992188 -15.839844 11.578125 -16.042969 11.222656 -16.296875 C 10.917969 -16.46875 10.585938 -16.613281 10.171875 -16.761719 C 9.8125 -16.847656 8.785156 -16.921875 8.425781 -16.929688 C 8.0625 -16.90625 7.785156 -16.910156 7.476562 -16.832031 C 6.835938 -16.703125 6.304688 -16.519531 5.773438 -16.277344 C 5.128906 -15.980469 4.648438 -15.65625 4.117188 -15.304688 C 3.554688 -14.894531 3.105469 -14.570312 2.652344 -14.105469 C 2.226562 -13.667969 1.855469 -13.089844 1.539062 -12.511719 C 1.371094 -12.261719 1.226562 -11.933594 1.109375 -11.601562 C 0.964844 -11.296875 0.816406 -10.742188 0.726562 -10.410156 C 0.757812 -10.4375 0.785156 -10.4375 0.8125 -10.4375 C 0.839844 -10.4375 0.867188 -10.410156 0.949219 -10.378906 C 0.976562 -10.351562 1.003906 -10.324219 1.03125 -10.324219 C 1.03125 -10.324219 1.058594 -10.351562 1.144531 -10.375 L 1.703125 -10.535156 C 1.785156 -10.5625 1.84375 -10.585938 1.898438 -10.585938 C 1.953125 -10.585938 2.007812 -10.558594 2.035156 -10.527344 C 2.0625 -10.5 2.089844 -10.417969 2.117188 -10.277344 C 2.113281 -10.167969 2.113281 -10.027344 2.136719 -10 C 2.191406 -9.914062 2.246094 -9.886719 2.304688 -9.886719 L 2.5 -9.882812 C 2.582031 -9.878906 2.636719 -9.90625 2.695312 -9.933594 C 3.382812 -9.699219 3.332031 -9.839844 3.441406 -9.839844 C 3.582031 -9.835938 3.664062 -9.808594 3.691406 -9.722656 C 3.9375 -9.609375 3.992188 -9.578125 3.992188 -9.496094 C 4.019531 -9.414062 4.046875 -9.328125 4.101562 -9.273438 C 4.164062 -9.6875 4.363281 -10.128906 4.539062 -10.597656 C 4.769531 -11.039062 5 -11.480469 5.285156 -11.949219 C 5.710938 -12.554688 5.851562 -12.746094 6.496094 -13.066406 C 6.863281 -13.285156 7.140625 -13.308594 7.449219 -13.386719 C 7.785156 -13.492188 7.78125 -13.410156 8.058594 -13.429688 L 8.476562 -13.425781 C 8.617188 -13.394531 8.867188 -13.445312 9.003906 -13.445312 C 9.089844 -13.441406 9.28125 -13.410156 9.335938 -13.328125 L 9.640625 -13.15625 C 9.832031 -12.984375 10.023438 -12.84375 10.242188 -12.5625 C 10.542969 -12.222656 10.984375 -12.019531 11.117188 -11.601562 L 11.328125 -10.960938 C 11.570312 -10.453125 11.28125 -9.929688 10.882812 -9.242188 C 10.769531 -9.132812 10.292969 -8.863281 10.09375 -8.753906 C 9.898438 -8.703125 9.171875 -8.328125 8.976562 -8.21875 C 8.667969 -8.085938 8.386719 -7.949219 8.078125 -7.761719 C 7.796875 -7.570312 7.515625 -7.351562 7.230469 -7.050781 C 6.976562 -6.75 6.75 -6.476562 6.550781 -6.144531 L 6.464844 -6.007812 C 6.382812 -6.039062 6.269531 -6.039062 6.132812 -6.042969 C 6.101562 -5.847656 5.957031 -5.570312 5.871094 -5.378906 C 5.839844 -5.183594 5.78125 -5.074219 5.777344 -4.878906 L 5.757812 -3.519531 L 6.339844 -3.535156 C 6.535156 -3.5625 6.703125 -3.585938 6.925781 -3.582031 L 7.203125 -3.523438 C 7.230469 -3.492188 7.3125 -3.492188 7.394531 -3.492188 C 7.480469 -3.488281 7.5625 -3.488281 7.589844 -3.515625 C 7.675781 -3.515625 7.953125 -3.59375 8.203125 -3.535156 C 8.453125 -3.472656 8.730469 -3.441406 8.730469 -3.414062 C 8.730469 -3.496094 8.703125 -3.636719 8.679688 -3.777344 C 8.652344 -3.804688 8.652344 -3.859375 8.652344 -3.914062 C 8.65625 -4 8.683594 -4.109375 8.714844 -4.246094 C 8.714844 -4.359375 8.746094 -4.414062 8.773438 -4.523438 C 8.886719 -4.632812 8.945312 -4.773438 9.03125 -4.855469 C 9.058594 -4.9375 9.144531 -5.019531 9.257812 -5.128906 L 9.535156 -5.207031 L 10.097656 -5.476562 C 10.238281 -5.585938 10.347656 -5.609375 10.546875 -5.691406 L 11.160156 -5.988281 C 13.011719 -6.84375 13.878906 -7.191406 14.640625 -9.570312 C 14.648438 -10.042969 14.773438 -10.820312 14.640625 -11.292969 Z M 7.957031 -7.125 C 7.898438 -7.039062 7.816406 -6.988281 7.730469 -6.90625 C 7.644531 -6.765625 7.53125 -6.65625 7.417969 -6.546875 C 7.277344 -6.410156 7.164062 -6.246094 7.078125 -6.109375 C 7.019531 -6.054688 6.964844 -6 6.9375 -5.917969 C 6.851562 -5.917969 6.796875 -5.917969 6.742188 -5.949219 C 6.65625 -5.949219 6.601562 -5.976562 6.519531 -5.980469 C 6.632812 -6.199219 6.777344 -6.335938 6.917969 -6.527344 C 7.117188 -6.71875 7.257812 -6.914062 7.484375 -7.101562 C 7.707031 -7.292969 7.960938 -7.429688 8.214844 -7.621094 Z M 8.550781 0.613281 L 8.558594 0.226562 C 8.589844 0.03125 8.621094 -0.191406 8.625 -0.386719 L 8.582031 -1.191406 L 8.476562 -1.609375 C 8.390625 -1.5 8.363281 -1.417969 8.332031 -1.28125 C 8.195312 -1.308594 8.054688 -1.285156 7.972656 -1.371094 C 7.945312 -1.398438 7.945312 -1.425781 7.945312 -1.453125 C 7.949219 -1.535156 7.921875 -1.566406 7.894531 -1.59375 C 7.867188 -1.621094 7.835938 -1.621094 7.808594 -1.621094 L 7.613281 -1.570312 C 7.558594 -1.542969 7.476562 -1.542969 7.335938 -1.546875 L 6.058594 -1.566406 L 5.808594 -1.601562 L 5.558594 -1.574219 L 5.523438 0.589844 L 5.589844 1.453125 L 6.089844 1.460938 C 6.3125 1.4375 6.535156 1.386719 6.785156 1.390625 L 7.148438 1.480469 L 7.589844 1.488281 C 7.675781 1.460938 8.039062 1.4375 8.34375 1.445312 C 8.539062 1.449219 8.648438 1.476562 8.648438 1.503906 L 8.574219 0.976562 C 8.546875 0.890625 8.546875 0.78125 8.550781 0.613281 Z M 8.550781 0.613281 "/></g></g></g><g fill="#000000" fill-opacity="1"><g transform="translate(215.13104, 146.198822)"><g><path d="M 12.601562 -0.5625 L 12.140625 -0.671875 C 11.464844 -0.835938 10.796875 -1.027344 10.15625 -1.210938 C 9.308594 -1.5 8.464844 -1.789062 7.605469 -2.023438 L 6.230469 -2.355469 L 7.652344 -3.757812 C 9.640625 -5.480469 11.519531 -7.226562 13.476562 -8.699219 C 13.992188 -9.0625 14.375 -9.457031 14.796875 -9.78125 C 15.101562 -9.738281 15.398438 -9.664062 15.722656 -9.585938 L 15.851562 -10.242188 C 15.820312 -10.476562 15.71875 -10.761719 15.777344 -11.003906 C 15.796875 -11.085938 15.808594 -11.140625 15.84375 -11.160156 C 15.886719 -11.347656 16.042969 -11.398438 16.167969 -11.566406 C 16.203125 -11.585938 16.214844 -11.640625 16.234375 -11.722656 L 16.308594 -12.132812 C 16.300781 -12.222656 16.253906 -12.746094 16.351562 -13.152344 C 16.40625 -13.367188 16.484375 -13.464844 16.625 -13.457031 C 16.058594 -13.59375 15.484375 -13.703125 14.898438 -13.761719 C 14.59375 -13.804688 14.351562 -13.863281 14.109375 -13.921875 C 13.539062 -14.058594 12.980469 -14.222656 12.417969 -14.386719 C 11.5625 -14.621094 10.75 -14.933594 9.804688 -15.160156 L 7.316406 -15.761719 L 5.652344 -15.960938 C 5.828125 -15.746094 6.316406 -15.628906 6.820312 -15.480469 C 6.707031 -15.363281 6.628906 -15.15625 6.386719 -15.097656 L 5.582031 -15.207031 C 5.496094 -15.199219 5.460938 -15.179688 5.449219 -15.125 C 5.429688 -15.042969 5.578125 -14.949219 5.632812 -14.824219 C 5.660156 -14.703125 5.664062 -14.585938 5.636719 -14.480469 L 5.113281 -12.777344 C 5.066406 -12.585938 5 -12.429688 5.035156 -12.222656 L 10.304688 -10.953125 C 9.347656 -10.183594 8.523438 -9.496094 7.671875 -8.699219 C 6.523438 -7.71875 5.433594 -6.636719 4.394531 -5.542969 C 3.199219 -4.261719 2.046875 -2.910156 0.917969 -1.4375 L 1.371094 -1.070312 L 1.898438 -1 C 2.0625 -0.960938 2.15625 -0.878906 2.21875 -0.78125 C 2.300781 -0.644531 2.214844 -0.410156 2.289062 -0.25 C 2.324219 -0.0390625 2.5 0.0585938 2.683594 0.132812 C 2.703125 0.167969 2.8125 0.191406 2.996094 0.265625 L 2.957031 0.425781 C 2.910156 0.617188 2.910156 0.730469 2.894531 0.925781 L 3.378906 1.042969 C 4.703125 1.363281 6.0625 1.777344 7.351562 2.117188 C 8.296875 2.34375 9.136719 2.546875 10.074219 2.800781 C 11.148438 3.089844 12.195312 3.371094 13.25 3.625 L 13.40625 2.976562 C 13.375 2.742188 13.300781 2.464844 13.359375 2.222656 C 13.378906 2.140625 13.390625 2.085938 13.425781 2.066406 C 13.496094 1.882812 13.625 1.828125 13.75 1.660156 C 13.792969 1.609375 13.8125 1.53125 13.84375 1.394531 L 13.914062 1.097656 C 13.878906 0.890625 13.898438 0.464844 13.976562 0.140625 C 14.054688 -0.183594 13.882812 -0.3125 13.640625 -0.371094 L 12.808594 -0.484375 C 12.703125 -0.511719 12.621094 -0.53125 12.601562 -0.5625 Z M 13.796875 -9.308594 C 13.8125 -9.503906 13.820312 -9.644531 13.839844 -9.726562 C 13.867188 -9.835938 13.910156 -9.910156 13.957031 -9.984375 L 14.605469 -9.828125 C 14.34375 -9.691406 14.078125 -9.527344 13.796875 -9.308594 Z M 13.796875 -9.308594 "/></g></g></g><g fill="#000000" fill-opacity="1"><g transform="translate(236.08113, 152.266506)"><g><path d="M 9.34375 -14.5 L 9.332031 -14.476562 C 8.347656 -12.238281 7.175781 -10.050781 6.078125 -7.832031 C 5.363281 -6.449219 4.753906 -5.109375 4.035156 -3.726562 C 3.226562 -2.140625 2.417969 -0.554688 1.625 1.132812 C 1.871094 1.121094 2.003906 1.367188 2.238281 1.320312 C 2.597656 1.269531 2.917969 1.167969 3.164062 1.371094 C 3.328125 1.476562 3.316406 1.777344 3.394531 1.933594 C 3.539062 2.089844 3.738281 2.121094 3.925781 2.175781 C 4.003906 2.210938 4.992188 2.046875 5.070312 2.816406 C 5.496094 1.941406 5.828125 1.144531 6.230469 0.257812 C 6.789062 -0.980469 7.417969 -2.164062 8.09375 -3.320312 C 8.777344 -4.628906 9.488281 -5.863281 10.109375 -7.167969 C 10.71875 -8.445312 11.234375 -9.648438 11.84375 -10.929688 C 12.246094 -11.753906 12.464844 -12.570312 12.820312 -13.355469 C 12.359375 -13.074219 12.222656 -12.375 11.84375 -11.601562 C 11.746094 -11.855469 11.605469 -11.953125 11.640625 -12.300781 C 11.714844 -12.664062 12.09375 -13.164062 12.140625 -13.539062 C 12.164062 -13.925781 11.183594 -13.578125 10.980469 -13.667969 C 10.449219 -13.910156 9.980469 -14.488281 9.34375 -14.5 Z M 9.34375 -14.5 "/></g></g></g><g fill="#000000" fill-opacity="1"><g transform="translate(250.095201, 158.982217)"><g><path d="M 19.578125 -1.339844 L 19.800781 -1.695312 C 20.011719 -2.089844 20.105469 -2.363281 20.164062 -2.730469 C 20.300781 -3.113281 20.390625 -3.527344 20.382812 -3.941406 C 20.394531 -4.34375 20.339844 -4.792969 20.226562 -5.113281 C 20.152344 -5.4375 20.039062 -5.757812 19.851562 -6.066406 C 19.761719 -6.371094 19.59375 -6.660156 19.390625 -6.90625 C 19.078125 -7.472656 18.597656 -7.847656 18.238281 -8.207031 C 17.796875 -8.59375 17.390625 -8.882812 16.960938 -9.191406 C 16.515625 -9.476562 16.085938 -9.78125 15.675781 -9.972656 C 15.078125 -10.332031 14.515625 -10.597656 13.964844 -10.785156 C 13.253906 -11.125 12.113281 -11.632812 12.003906 -11.574219 L 11.089844 -12.160156 L 9.550781 -9.914062 C 9.378906 -9.625 9.253906 -9.40625 9.140625 -9.246094 L 8.65625 -8.570312 C 8.058594 -7.734375 7.453125 -6.933594 6.761719 -6.0625 L 2.738281 -0.433594 C 2.269531 0.222656 1.824219 0.792969 1.363281 1.488281 C 1.199219 1.714844 1.03125 2 0.820312 2.292969 C 1.082031 2.3125 1.1875 2.59375 1.421875 2.554688 C 1.78125 2.574219 2.109375 2.5 2.332031 2.761719 C 2.488281 2.875 2.417969 3.164062 2.464844 3.335938 C 2.597656 3.53125 2.78125 3.5625 2.957031 3.652344 C 3.023438 3.699219 3.945312 3.609375 3.914062 4.371094 C 4.273438 3.535156 4.691406 2.808594 5.210938 1.984375 C 5.398438 1.671875 5.582031 1.464844 5.667969 1.25 L 5.890625 0.933594 C 6.007812 0.675781 6.175781 0.488281 6.386719 0.195312 C 6.757812 -0.324219 7.1875 -0.875 7.582031 -1.378906 L 7.625 -1.347656 C 8.1875 -1.082031 8.777344 -0.761719 9.441406 -0.492188 C 10.355469 -0.144531 11.175781 0.234375 12.171875 0.46875 C 12.675781 0.625 13.160156 0.800781 13.722656 0.828125 C 14.222656 0.945312 14.730469 1 15.40625 1.007812 C 15.695312 0.941406 15.949219 0.917969 16.320312 0.875 C 16.730469 0.828125 17.050781 0.714844 17.441406 0.550781 C 17.738281 0.421875 18.085938 0.222656 18.417969 -0.0507812 C 18.78125 -0.269531 19.03125 -0.570312 19.261719 -0.847656 L 19.457031 -1.121094 Z M 16.332031 -2.910156 L 16.15625 -2.761719 L 15.96875 -2.691406 C 15.6875 -2.585938 15.355469 -2.550781 14.890625 -2.574219 C 14.597656 -2.542969 14.238281 -2.5625 13.792969 -2.707031 C 13.230469 -2.875 12.699219 -2.945312 12.3125 -3.121094 C 11.65625 -3.351562 11.167969 -3.527344 10.75 -3.757812 L 9.863281 -4.1875 L 10.847656 -5.566406 C 11.351562 -6.265625 11.851562 -6.96875 12.3125 -7.664062 L 12.328125 -7.683594 C 12.761719 -7.476562 13.210938 -7.292969 13.589844 -7.058594 C 13.863281 -6.964844 14.144531 -6.832031 14.433594 -6.660156 L 15.449219 -5.933594 C 15.773438 -5.667969 15.988281 -5.445312 16.144531 -5.230469 C 16.269531 -5.074219 16.417969 -4.898438 16.632812 -4.574219 L 16.746094 -3.636719 L 16.574219 -3.25 L 16.433594 -3.007812 Z M 16.332031 -2.910156 "/></g></g></g><g fill="#fee354" fill-opacity="1"><g transform="translate(180.747129, 292.296967)"><g><path d="M 6.34375 -9.109375 L 6.25 -8.015625 L 4.28125 -8.015625 L 4.28125 0 L 1.984375 0 L 1.984375 -8.015625 L -0.0625 -8.015625 L -0.0625 -9.109375 Z M 6.34375 -9.109375 "/></g></g></g><g fill="#fee354" fill-opacity="1"><g transform="translate(189.753963, 292.296967)"><g><path d="M 5.765625 -9.109375 L 5.765625 -8.015625 L 3.046875 -8.015625 L 3.046875 -5.234375 L 5.359375 -5.234375 L 5.359375 -4.125 L 3.046875 -4.125 L 3.046875 -1.09375 L 5.953125 -1.09375 L 5.859375 0 L 0.765625 0 L 0.765625 -9.109375 Z M 5.765625 -9.109375 "/></g></g></g><g fill="#fee354" fill-opacity="1"><g transform="translate(198.664248, 292.296967)"><g><path d="M 4.28125 -8.390625 C 3.675781 -8.390625 3.28125 -8.039062 3.09375 -7.34375 C 2.914062 -6.65625 2.828125 -5.8125 2.828125 -4.8125 C 2.828125 -3.75 2.96875 -2.90625 3.25 -2.28125 C 3.53125 -1.65625 4.046875 -1.34375 4.796875 -1.34375 C 5.253906 -1.34375 5.640625 -1.457031 5.953125 -1.6875 C 6.273438 -1.914062 6.53125 -2.242188 6.71875 -2.671875 C 7.070312 -2.503906 7.25 -2.203125 7.25 -1.765625 C 7.25 -1.328125 7.109375 -0.953125 6.828125 -0.640625 C 6.546875 -0.328125 6.179688 -0.09375 5.734375 0.0625 C 5.285156 0.21875 4.816406 0.296875 4.328125 0.296875 C 2.960938 0.296875 1.960938 -0.132812 1.328125 -1 C 0.691406 -1.875 0.375 -3.039062 0.375 -4.5 C 0.375 -6.019531 0.703125 -7.210938 1.359375 -8.078125 C 2.023438 -8.941406 3.046875 -9.375 4.421875 -9.375 C 5.265625 -9.375 5.957031 -9.222656 6.5 -8.921875 C 7.039062 -8.617188 7.3125 -8.128906 7.3125 -7.453125 C 7.3125 -7.046875 7.179688 -6.71875 6.921875 -6.46875 C 6.660156 -6.21875 6.328125 -6.09375 5.921875 -6.09375 C 5.617188 -6.09375 5.378906 -6.144531 5.203125 -6.25 C 5.265625 -6.539062 5.296875 -6.785156 5.296875 -6.984375 C 5.296875 -7.921875 4.957031 -8.390625 4.28125 -8.390625 Z M 4.28125 -8.390625 "/></g></g></g><g fill="#fee354" fill-opacity="1"><g transform="translate(208.995109, 292.296967)"><g><path d="M 7.875 -9.109375 L 7.875 0 L 5.59375 0 L 5.59375 -4.0625 L 3.046875 -4.0625 L 3.046875 0 L 0.765625 0 L 0.765625 -9.109375 L 3.046875 -9.109375 L 3.046875 -5.15625 L 5.59375 -5.15625 L 5.59375 -9.109375 Z M 7.875 -9.109375 "/></g></g></g><g fill="#000000" fill-opacity="1"><g transform="translate(263.514778, 233.605806)"><g><path d="M 0.851562 16.425781 C 0.996094 16.390625 1.050781 16.277344 1.128906 16.152344 C 1.207031 16.023438 1.269531 15.875 1.328125 15.726562 C 1.441406 15.503906 1.566406 15.207031 1.628906 14.917969 C 1.710938 14.613281 1.78125 14.285156 1.832031 13.9375 L 2.035156 14.304688 C 2.113281 14.453125 2.117188 14.691406 2.109375 15.007812 C 2.074219 15.378906 1.957031 15.777344 1.714844 16.199219 L 1.429688 16.789062 L 1.117188 17.296875 C 1.011719 17.480469 0.976562 17.574219 0.976562 17.574219 C 1.011719 17.621094 1.050781 17.625 1.117188 17.574219 L 1.382812 17.378906 C 1.523438 17.238281 1.589844 17.191406 1.679688 17.125 C 1.941406 16.964844 2.015625 16.976562 2.167969 17.035156 L 2.425781 17.292969 C 2.53125 17.386719 2.636719 17.480469 2.6875 17.550781 L 3.042969 18.078125 C 3.160156 18.234375 3.28125 18.351562 3.351562 18.398438 C 3.503906 18.460938 3.679688 18.46875 3.886719 18.417969 L 3.972656 18.351562 C 4.425781 17.566406 4.761719 16.765625 4.980469 15.945312 C 5.207031 15.085938 5.332031 14.234375 5.351562 13.425781 C 5.378906 12.578125 5.28125 11.75 5.167969 10.902344 C 5.039062 10.03125 4.800781 9.242188 4.492188 8.503906 C 4.15625 7.683594 3.773438 6.933594 3.242188 6.222656 C 2.980469 5.867188 2.691406 5.527344 2.289062 5.171875 C 1.957031 4.863281 1.609375 4.535156 1.191406 4.296875 C 0.777344 4.015625 0.3125 3.808594 -0.21875 3.652344 C -0.714844 3.5 -1.234375 3.402344 -1.742188 3.367188 C -2.277344 3.347656 -2.757812 3.398438 -3.269531 3.5 C -3.773438 3.566406 -4.210938 3.71875 -4.632812 3.894531 C -5.144531 4.136719 -5.65625 4.378906 -6.117188 4.683594 L -6.761719 5.164062 C -7.007812 5.347656 -7.210938 5.535156 -7.464844 5.753906 C -7.910156 6.222656 -8.214844 6.695312 -8.503906 7.1875 C -8.65625 7.402344 -8.773438 7.660156 -8.953125 7.933594 C -9.046875 7.898438 -9.15625 7.84375 -9.261719 7.75 C -10.109375 7.308594 -10.847656 6.820312 -11.546875 6.304688 C -11.652344 6.484375 -11.808594 6.601562 -11.851562 6.773438 C -11.96875 7.03125 -12.015625 7.34375 -12.242188 7.546875 C -12.355469 7.628906 -12.539062 7.664062 -12.644531 7.707031 C -12.796875 7.820312 -12.820312 7.976562 -12.960938 8.113281 L -13.210938 8.75 C -13.308594 8.855469 -13.386719 8.984375 -13.472656 9.050781 C -13.585938 9.132812 -13.683594 9 -13.773438 9.066406 C -13.316406 9.449219 -12.808594 9.761719 -12.269531 10.019531 C -11.558594 10.421875 -10.871094 10.878906 -10.167969 11.21875 L -9.675781 11.511719 C -9.714844 11.644531 -9.699219 11.804688 -9.699219 11.941406 C -9.714844 12.988281 -9.570312 14.023438 -9.25 15.058594 C -9.089844 15.597656 -8.886719 16.101562 -8.683594 16.609375 L -8.625 16.734375 C -8.355469 17.332031 -8.058594 17.871094 -7.675781 18.382812 C -7.28125 18.914062 -6.878906 19.410156 -6.386719 19.839844 C -5.917969 20.285156 -5.359375 20.664062 -4.734375 20.992188 C -4.378906 21.144531 -4.140625 21.277344 -3.78125 21.390625 C -3.578125 21.480469 -3.445312 21.519531 -3.21875 21.59375 C -3.085938 21.632812 -2.890625 21.660156 -2.734375 21.683594 C -2.332031 21.761719 -1.9375 21.78125 -1.515625 21.742188 C -1.140625 21.738281 -0.710938 21.664062 -0.296875 21.527344 C 0.101562 21.367188 0.414062 21.277344 0.699219 21.097656 C 0.976562 20.960938 1.238281 20.800781 1.480469 20.621094 C 1.976562 20.355469 2.292969 20.085938 2.632812 19.9375 C 2.59375 19.933594 2.558594 19.886719 2.527344 19.84375 C 2.492188 19.796875 2.460938 19.753906 2.464844 19.714844 L 2.394531 19.527344 C 2.34375 19.460938 2.304688 19.453125 2.246094 19.464844 C 2.039062 19.375 1.785156 19.359375 1.546875 19.363281 C 1.351562 19.332031 1.242188 19.277344 1.191406 19.210938 C 1.160156 19.167969 1.128906 19.121094 1.132812 19.082031 C 1.136719 19.042969 1.214844 18.917969 1.367188 18.703125 C 1.472656 18.519531 1.625 18.441406 1.640625 18.328125 C 1.679688 18.195312 1.675781 18.09375 1.625 18.027344 C 1.574219 17.960938 1.46875 17.867188 1.367188 17.769531 C 1.328125 17.765625 1.203125 17.785156 1.023438 17.679688 C 0.828125 17.652344 0.601562 17.578125 0.453125 17.515625 C 0.363281 17.445312 0.292969 17.394531 0.257812 17.351562 C 0.210938 17.285156 0.199219 17.222656 0.226562 17.167969 C 0.214844 17.105469 0.28125 17.058594 0.332031 16.984375 C 0.425781 16.878906 0.636719 16.792969 0.605469 16.609375 C 0.292969 16.839844 -0.304688 17.285156 -0.585938 17.425781 C -0.785156 17.574219 -0.957031 17.667969 -1.128906 17.761719 L -1.511719 17.941406 C -1.574219 17.953125 -1.65625 17.980469 -1.792969 17.980469 L -2.164062 17.945312 L -2.433594 17.867188 L -2.679688 17.808594 C -2.863281 17.703125 -2.957031 17.667969 -3.164062 17.578125 C -3.582031 17.339844 -3.984375 16.984375 -4.386719 16.488281 C -4.734375 16.019531 -5.039062 15.519531 -5.3125 14.964844 C -5.542969 14.375 -5.695312 13.800781 -5.808594 13.226562 L -4.429688 13.6875 C -4.492188 13.285156 -4.933594 13.335938 -5.359375 13.136719 C -5.289062 13.046875 -5.214844 12.960938 -5.148438 12.910156 C -5.082031 12.859375 -5.019531 12.847656 -4.921875 12.84375 C -4.683594 12.839844 -4.457031 13.050781 -4.21875 13.046875 C -4.179688 13.050781 -4.15625 13.035156 -4.113281 13.003906 C -4.023438 12.9375 -4.171875 12.875 -4.222656 12.667969 C -4.269531 12.464844 -4.121094 12.25 -4.015625 12.066406 C -3.773438 11.507812 -3.335938 11.078125 -3.25 10.496094 C -4.050781 10.160156 -4.738281 9.839844 -5.46875 9.554688 L -5.027344 8.847656 C -4.832031 8.597656 -4.667969 8.445312 -4.484375 8.273438 L -4.152344 8.023438 L -3.761719 7.804688 L -2.996094 7.441406 L -2.277344 7.25 C -2.039062 7.246094 -1.820312 7.257812 -1.628906 7.289062 C -1.421875 7.378906 -1.230469 7.40625 -1.046875 7.511719 C -0.839844 7.601562 -0.6875 7.761719 -0.488281 7.890625 C -0.207031 8.128906 0.0703125 8.410156 0.285156 8.699219 C 0.398438 8.855469 0.5 8.988281 0.59375 9.160156 C 0.878906 9.636719 1.113281 10.1875 1.296875 10.847656 C 1.453125 11.386719 1.523438 11.851562 1.542969 12.390625 L 1.59375 12.734375 C 1.628906 13.570312 1.53125 14.367188 1.34375 15.09375 C 1.269531 15.460938 1.035156 16.117188 0.851562 16.425781 Z M 0.851562 16.425781 "/></g></g></g><g fill="#000000" fill-opacity="1"><g transform="translate(242.812127, 247.776912)"><g><path d="M 4.464844 16.613281 L 4.484375 16.515625 C 4.285156 15.96875 4.089844 15.359375 3.917969 14.738281 C 3.761719 14.082031 3.589844 13.460938 3.421875 12.84375 C 3.253906 12.160156 3.09375 11.566406 2.878906 10.84375 C 2.6875 10.175781 2.460938 9.488281 2.214844 8.839844 L 1.734375 7.691406 C 1.613281 7.410156 1.527344 7.203125 1.40625 6.984375 C 1.203125 6.5 0.929688 6.132812 0.691406 5.785156 C 0.578125 5.589844 0.460938 5.457031 0.300781 5.285156 C 0.289062 5.261719 0.242188 5.21875 0.210938 5.144531 L 0.125 5.089844 L 0.0351562 4.945312 L -0.105469 4.824219 C -0.371094 4.546875 -0.578125 4.273438 -0.886719 4.039062 C -1.226562 3.734375 -1.507812 3.492188 -1.878906 3.253906 C -2.257812 2.996094 -2.679688 2.78125 -3.175781 2.597656 C -3.625 2.457031 -4.140625 2.375 -4.613281 2.332031 C -5.21875 2.316406 -5.757812 2.394531 -6.277344 2.519531 C -6.589844 2.5625 -6.804688 2.621094 -7.042969 2.695312 L -7.402344 2.84375 L -7.566406 2.882812 L -7.746094 2.957031 C -8.230469 3.164062 -8.679688 3.382812 -9.136719 3.726562 C -9.355469 3.847656 -9.578125 4.03125 -9.828125 4.226562 C -10.066406 4.445312 -10.238281 4.609375 -10.445312 4.90625 C -10.628906 5.105469 -10.785156 5.378906 -10.945312 5.71875 C -11.085938 6.019531 -11.242188 6.292969 -11.304688 6.652344 C -11.371094 6.917969 -11.425781 7.214844 -11.472656 7.535156 C -11.457031 7.859375 -11.5 8.117188 -11.457031 8.429688 C -11.378906 8.96875 -11.308594 9.421875 -11.183594 9.9375 L -10.988281 10.398438 C -10.945312 10.5 -10.960938 10.535156 -10.949219 10.5625 C -10.894531 10.839844 -10.824219 11.078125 -10.726562 11.308594 L -10.460938 12.007812 L -9.558594 13.945312 L -9.234375 14.921875 L -9.085938 15.28125 C -8.9375 15.699219 -8.757812 16.132812 -8.550781 16.617188 C -8.199219 17.523438 -7.824219 18.417969 -7.449219 19.3125 L -6.332031 21.96875 C -6.300781 21.894531 -6.261719 21.847656 -6.210938 21.828125 C -6.132812 21.792969 -6.097656 21.808594 -6.019531 21.777344 C -5.941406 21.746094 -5.902344 21.699219 -5.882812 21.601562 C -5.796875 21.234375 -5.8125 20.699219 -5.582031 20.601562 C -5.53125 20.578125 -5.507812 20.570312 -5.46875 20.582031 C -5.257812 20.585938 -5.019531 21.085938 -4.785156 21.136719 C -4.703125 21.191406 -4.640625 21.195312 -4.589844 21.175781 C -4.5625 21.164062 -4.472656 21.097656 -4.378906 20.964844 C -4.25 20.910156 -4.085938 20.152344 -3.808594 20.035156 C -3.628906 19.957031 -3.5625 20.472656 -3.1875 20.644531 L -3.265625 20.46875 C -3.835938 19.175781 -4.34375 17.972656 -4.871094 16.722656 L -6.265625 13.402344 L -6.324219 13.125 L -6.765625 12.078125 C -6.929688 11.757812 -7.078125 11.398438 -7.210938 11.09375 C -7.5 10.402344 -7.726562 9.867188 -7.894531 9.246094 C -8 8.929688 -8.054688 8.652344 -8.074219 8.390625 C -8.121094 8.136719 -8.121094 7.925781 -8.082031 7.730469 C -8.082031 7.519531 -8.007812 7.339844 -7.949219 7.195312 L -7.574219 6.796875 C -7.414062 6.605469 -7.21875 6.496094 -6.949219 6.351562 L -6.132812 6.007812 C -5.839844 5.914062 -5.609375 5.820312 -5.347656 5.796875 C -5.074219 5.804688 -4.847656 5.769531 -4.625 5.796875 C -4.457031 5.84375 -4.269531 5.855469 -4.09375 5.992188 C -3.859375 6.042969 -3.734375 6.203125 -3.457031 6.355469 C -3.261719 6.542969 -3.023438 6.746094 -2.804688 6.984375 L -2.441406 7.34375 L -2.328125 7.472656 L -2.238281 7.617188 C -1.855469 8.027344 -1.582031 8.601562 -1.308594 9.179688 L -1.113281 9.640625 C -0.933594 10.074219 -0.753906 10.570312 -0.574219 11.066406 L 0.0273438 13.066406 C 0.277344 14.015625 0.515625 14.875 0.816406 15.804688 L 1.238281 17.160156 C 1.367188 17.675781 1.574219 18.101562 1.789062 18.613281 C 1.992188 18.375 1.300781 17.164062 0.617188 14.324219 C 0.835938 14.5625 0.984375 14.558594 1.234375 15.148438 L 1.296875 15.300781 C 1.4375 15.632812 1.566406 16.148438 1.742188 16.644531 C 1.859375 16.988281 1.957031 17.367188 2.085938 17.675781 C 2.160156 17.851562 2.214844 17.980469 2.273438 18.046875 L 2.464844 18.355469 C 2.488281 18.347656 2.503906 18.308594 2.496094 18.222656 C 2.449219 18.035156 2.382812 17.667969 2.386719 17.457031 C 2.34375 17.144531 2.460938 17.066406 2.5625 17.023438 C 2.664062 16.980469 2.800781 17.011719 2.875 16.980469 C 3.167969 16.886719 3.421875 16.992188 3.746094 16.976562 C 3.957031 16.976562 4.097656 16.949219 4.171875 16.917969 C 4.300781 16.863281 4.40625 16.757812 4.464844 16.613281 Z M 4.464844 16.613281 "/></g></g></g><g fill="#000000" fill-opacity="1"><g transform="translate(221.226931, 255.697554)"><g><path d="M 0.972656 17.175781 L 0.96875 17.148438 C 0.449219 14.765625 0.109375 12.316406 -0.304688 9.882812 C -0.539062 8.347656 -0.835938 6.90625 -1.070312 5.371094 C -1.347656 3.617188 -1.625 1.863281 -1.972656 0.0390625 C -2.167969 0.191406 -2.417969 0.0742188 -2.582031 0.25 C -2.839844 0.5 -3.039062 0.769531 -3.355469 0.75 C -3.550781 0.761719 -3.714844 0.511719 -3.871094 0.433594 C -4.078125 0.390625 -4.257812 0.484375 -4.441406 0.550781 C -4.523438 0.566406 -5.226562 1.277344 -5.742188 0.707031 C -5.570312 1.660156 -5.371094 2.496094 -5.175781 3.445312 C -4.898438 4.777344 -4.710938 6.097656 -4.578125 7.425781 C -4.363281 8.882812 -4.210938 10.292969 -3.949219 11.710938 C -3.6875 13.101562 -3.398438 14.371094 -3.140625 15.761719 C -2.980469 16.660156 -2.675781 17.449219 -2.503906 18.289062 C -2.292969 17.792969 -2.597656 17.148438 -2.746094 16.300781 C -2.515625 16.453125 -2.347656 16.445312 -2.171875 16.75 C -2.015625 17.085938 -2.027344 17.710938 -1.847656 18.039062 C -1.636719 18.367188 -1.050781 17.507812 -0.835938 17.464844 C -0.265625 17.347656 0.453125 17.535156 0.972656 17.175781 Z M 0.972656 17.175781 "/></g></g></g><g fill="#000000" fill-opacity="1"><g transform="translate(205.947529, 258.473736)"><g><path d="M -14.269531 11.679688 C -14.265625 11.761719 -14.210938 11.871094 -14.179688 11.984375 L -13.949219 12.671875 C -13.75 13.253906 -13.523438 13.691406 -13.292969 14.1875 C -13.125 14.4375 -12.816406 14.710938 -12.59375 14.957031 C -12.449219 15.257812 -11.976562 15.53125 -11.722656 15.832031 C -11.496094 16.136719 -11.078125 16.324219 -10.714844 16.570312 C -10.40625 16.730469 -10.074219 16.867188 -9.65625 17 C -9.296875 17.078125 -8.269531 17.121094 -7.910156 17.117188 C -7.550781 17.082031 -7.273438 17.082031 -6.96875 16.992188 C -6.332031 16.847656 -5.808594 16.644531 -5.285156 16.390625 C -4.652344 16.078125 -4.183594 15.738281 -3.660156 15.371094 C -3.113281 14.949219 -2.671875 14.613281 -2.234375 14.136719 C -1.824219 13.6875 -1.472656 13.101562 -1.175781 12.515625 C -1.011719 12.261719 -0.878906 11.929688 -0.769531 11.59375 C -0.636719 11.289062 -0.503906 10.734375 -0.425781 10.398438 C -0.453125 10.425781 -0.480469 10.425781 -0.507812 10.425781 C -0.535156 10.429688 -0.5625 10.402344 -0.648438 10.375 C -0.675781 10.347656 -0.703125 10.320312 -0.730469 10.320312 C -0.730469 10.320312 -0.757812 10.347656 -0.839844 10.375 L -1.394531 10.550781 C -1.476562 10.578125 -1.53125 10.605469 -1.585938 10.605469 C -1.640625 10.609375 -1.699219 10.582031 -1.726562 10.554688 C -1.753906 10.527344 -1.78125 10.445312 -1.8125 10.304688 C -1.8125 10.195312 -1.816406 10.054688 -1.84375 10.027344 C -1.898438 9.945312 -1.957031 9.917969 -2.011719 9.917969 L -2.207031 9.921875 C -2.289062 9.921875 -2.34375 9.953125 -2.398438 9.980469 C -3.09375 9.765625 -3.035156 9.90625 -3.148438 9.90625 C -3.285156 9.90625 -3.371094 9.882812 -3.398438 9.796875 C -3.648438 9.691406 -3.707031 9.664062 -3.707031 9.582031 C -3.734375 9.496094 -3.761719 9.414062 -3.820312 9.359375 C -3.871094 9.777344 -4.058594 10.222656 -4.21875 10.695312 C -4.433594 11.140625 -4.652344 11.585938 -4.921875 12.0625 C -5.332031 12.675781 -5.46875 12.871094 -6.101562 13.214844 C -6.457031 13.4375 -6.734375 13.46875 -7.039062 13.558594 C -7.371094 13.671875 -7.371094 13.589844 -7.648438 13.621094 L -8.0625 13.625 C -8.203125 13.597656 -8.449219 13.65625 -8.589844 13.660156 C -8.671875 13.660156 -8.867188 13.636719 -8.921875 13.554688 L -9.230469 13.390625 C -9.425781 13.226562 -9.621094 13.089844 -9.847656 12.816406 C -10.15625 12.488281 -10.601562 12.300781 -10.746094 11.886719 L -10.976562 11.25 C -11.230469 10.753906 -10.960938 10.222656 -10.582031 9.527344 C -10.472656 9.414062 -10.003906 9.132812 -9.8125 9.019531 C -9.617188 8.960938 -8.902344 8.5625 -8.710938 8.449219 C -8.40625 8.308594 -8.128906 8.167969 -7.828125 7.96875 C -7.554688 7.769531 -7.277344 7.546875 -7.003906 7.238281 C -6.761719 6.929688 -6.542969 6.648438 -6.351562 6.316406 L -6.269531 6.175781 C -6.1875 6.203125 -6.078125 6.199219 -5.9375 6.199219 C -5.914062 6.003906 -5.777344 5.726562 -5.695312 5.53125 C -5.671875 5.335938 -5.617188 5.226562 -5.621094 5.03125 L -5.636719 3.671875 L -6.21875 3.707031 C -6.410156 3.738281 -6.578125 3.769531 -6.800781 3.769531 L -7.078125 3.71875 C -7.105469 3.691406 -7.1875 3.691406 -7.269531 3.691406 C -7.355469 3.695312 -7.4375 3.695312 -7.464844 3.722656 C -7.546875 3.722656 -7.824219 3.8125 -8.074219 3.757812 C -8.324219 3.707031 -8.601562 3.683594 -8.601562 3.65625 C -8.601562 3.738281 -8.570312 3.875 -8.542969 4.015625 C -8.515625 4.042969 -8.511719 4.097656 -8.511719 4.152344 C -8.511719 4.234375 -8.539062 4.347656 -8.5625 4.484375 C -8.5625 4.597656 -8.589844 4.652344 -8.617188 4.761719 C -8.726562 4.875 -8.78125 5.015625 -8.863281 5.097656 C -8.886719 5.183594 -8.96875 5.265625 -9.078125 5.378906 L -9.355469 5.464844 L -9.90625 5.75 C -10.042969 5.863281 -10.15625 5.890625 -10.347656 5.976562 L -10.953125 6.289062 C -12.769531 7.199219 -13.625 7.570312 -14.316406 9.960938 C -14.3125 10.433594 -14.414062 11.210938 -14.269531 11.679688 Z M -7.726562 7.328125 C -7.671875 7.246094 -7.589844 7.1875 -7.507812 7.105469 C -7.425781 6.964844 -7.316406 6.851562 -7.207031 6.742188 C -7.070312 6.601562 -6.960938 6.433594 -6.878906 6.292969 C -6.824219 6.238281 -6.769531 6.179688 -6.742188 6.097656 C -6.660156 6.097656 -6.605469 6.097656 -6.546875 6.125 C -6.464844 6.121094 -6.410156 6.148438 -6.328125 6.148438 C -6.433594 6.371094 -6.570312 6.511719 -6.707031 6.707031 C -6.898438 6.902344 -7.035156 7.097656 -7.253906 7.296875 C -7.472656 7.492188 -7.722656 7.632812 -7.96875 7.832031 Z M -8.542969 -0.367188 L -8.535156 0.0234375 C -8.5625 0.21875 -8.585938 0.4375 -8.585938 0.632812 L -8.519531 1.4375 L -8.402344 1.851562 C -8.320312 1.738281 -8.292969 1.65625 -8.269531 1.515625 C -8.128906 1.542969 -7.992188 1.511719 -7.90625 1.59375 C -7.878906 1.621094 -7.878906 1.648438 -7.878906 1.675781 C -7.878906 1.761719 -7.847656 1.789062 -7.820312 1.816406 C -7.792969 1.84375 -7.765625 1.84375 -7.738281 1.84375 L -7.542969 1.785156 C -7.488281 1.753906 -7.40625 1.753906 -7.269531 1.753906 L -5.992188 1.738281 L -5.742188 1.761719 L -5.492188 1.730469 L -5.519531 -0.429688 L -5.613281 -1.289062 L -6.113281 -1.28125 C -6.335938 -1.25 -6.554688 -1.195312 -6.804688 -1.191406 L -7.167969 -1.269531 L -7.609375 -1.265625 C -7.691406 -1.234375 -8.050781 -1.203125 -8.359375 -1.199219 C -8.550781 -1.195312 -8.664062 -1.222656 -8.664062 -1.25 L -8.574219 -0.726562 C -8.542969 -0.640625 -8.542969 -0.53125 -8.542969 -0.367188 Z M -8.542969 -0.367188 "/></g></g></g><g fill="#000000" fill-opacity="1"><g transform="translate(183.861436, 257.938251)"><g><path d="M -12.542969 0.925781 L -12.082031 1.019531 C -11.40625 1.164062 -10.734375 1.335938 -10.085938 1.5 C -9.238281 1.761719 -8.386719 2.027344 -7.523438 2.238281 L -6.140625 2.527344 L -7.519531 3.964844 C -9.453125 5.738281 -11.277344 7.535156 -13.183594 9.058594 C -13.6875 9.433594 -14.054688 9.839844 -14.464844 10.175781 C -14.769531 10.140625 -15.070312 10.078125 -15.394531 10.011719 L -15.503906 10.667969 C -15.46875 10.902344 -15.355469 11.179688 -15.410156 11.421875 C -15.425781 11.503906 -15.4375 11.558594 -15.46875 11.578125 C -15.511719 11.769531 -15.664062 11.824219 -15.785156 11.996094 C -15.816406 12.015625 -15.828125 12.070312 -15.84375 12.152344 L -15.90625 12.566406 C -15.894531 12.652344 -15.835938 13.175781 -15.921875 13.582031 C -15.964844 13.796875 -16.042969 13.894531 -16.183594 13.894531 C -15.613281 14.011719 -15.039062 14.105469 -14.453125 14.144531 C -14.148438 14.179688 -13.90625 14.234375 -13.660156 14.285156 C -13.089844 14.402344 -12.527344 14.550781 -11.964844 14.699219 C -11.101562 14.910156 -10.285156 15.195312 -9.335938 15.394531 L -6.839844 15.921875 L -5.171875 16.074219 C -5.355469 15.863281 -5.84375 15.761719 -6.351562 15.625 C -6.242188 15.507812 -6.171875 15.296875 -5.929688 15.234375 L -5.128906 15.316406 C -5.039062 15.308594 -5.007812 15.285156 -4.996094 15.234375 C -4.980469 15.152344 -5.128906 15.0625 -5.1875 14.9375 C -5.21875 14.816406 -5.222656 14.703125 -5.199219 14.59375 L -4.726562 12.882812 C -4.6875 12.691406 -4.625 12.535156 -4.667969 12.328125 L -9.953125 11.214844 C -9.023438 10.417969 -8.222656 9.710938 -7.398438 8.890625 C -6.277344 7.882812 -5.222656 6.773438 -4.222656 5.652344 C -3.066406 4.339844 -1.953125 2.957031 -0.875 1.457031 L -1.335938 1.105469 L -1.863281 1.050781 C -2.027344 1.015625 -2.125 0.941406 -2.1875 0.839844 C -2.273438 0.710938 -2.195312 0.472656 -2.273438 0.3125 C -2.316406 0.105469 -2.496094 0.0117188 -2.679688 -0.0546875 C -2.699219 -0.0859375 -2.808594 -0.109375 -2.992188 -0.179688 L -2.957031 -0.339844 C -2.917969 -0.53125 -2.921875 -0.644531 -2.910156 -0.839844 L -3.398438 -0.941406 C -4.726562 -1.222656 -6.09375 -1.597656 -7.390625 -1.898438 C -8.339844 -2.097656 -9.179688 -2.273438 -10.121094 -2.503906 C -11.199219 -2.757812 -12.253906 -3.007812 -13.3125 -3.230469 L -13.449219 -2.582031 C -13.414062 -2.347656 -13.328125 -2.074219 -13.378906 -1.828125 C -13.398438 -1.746094 -13.40625 -1.695312 -13.441406 -1.671875 C -13.507812 -1.488281 -13.632812 -1.429688 -13.753906 -1.257812 C -13.792969 -1.207031 -13.8125 -1.128906 -13.839844 -0.992188 L -13.902344 -0.695312 C -13.859375 -0.488281 -13.867188 -0.0625 -13.933594 0.261719 C -14.003906 0.589844 -13.828125 0.710938 -13.585938 0.761719 L -12.753906 0.851562 C -12.648438 0.875 -12.566406 0.890625 -12.542969 0.925781 Z M -13.484375 9.675781 C -13.496094 9.871094 -13.496094 10.011719 -13.515625 10.09375 C -13.535156 10.203125 -13.582031 10.277344 -13.625 10.355469 L -14.277344 10.21875 C -14.019531 10.074219 -13.757812 9.902344 -13.484375 9.675781 Z M -13.484375 9.675781 "/></g></g></g><g fill="#000000" fill-opacity="1"><g transform="translate(162.80412, 252.493975)"><g><path d="M -8.894531 14.722656 L -8.886719 14.699219 C -7.96875 12.4375 -6.863281 10.226562 -5.835938 7.984375 C -5.160156 6.582031 -4.589844 5.230469 -3.914062 3.828125 C -3.15625 2.226562 -2.394531 0.621094 -1.652344 -1.082031 C -1.898438 -1.066406 -2.039062 -1.304688 -2.269531 -1.25 C -2.625 -1.1875 -2.941406 -1.082031 -3.191406 -1.277344 C -3.359375 -1.375 -3.355469 -1.675781 -3.441406 -1.832031 C -3.585938 -1.980469 -3.789062 -2.003906 -3.976562 -2.054688 C -4.054688 -2.085938 -5.035156 -1.898438 -5.136719 -2.660156 C -5.535156 -1.777344 -5.84375 -0.972656 -6.214844 -0.078125 C -6.742188 1.175781 -7.332031 2.371094 -7.972656 3.542969 C -8.617188 4.867188 -9.289062 6.117188 -9.871094 7.4375 C -10.441406 8.730469 -10.917969 9.941406 -11.492188 11.234375 C -11.871094 12.066406 -12.0625 12.886719 -12.394531 13.679688 C -11.941406 13.390625 -11.828125 12.683594 -11.472656 11.902344 C -11.367188 12.15625 -11.222656 12.246094 -11.25 12.597656 C -11.3125 12.960938 -11.675781 13.46875 -11.710938 13.84375 C -11.722656 14.230469 -10.753906 13.855469 -10.550781 13.941406 C -10.015625 14.164062 -9.527344 14.730469 -8.894531 14.722656 Z M -8.894531 14.722656 "/></g></g></g><g fill="#000000" fill-opacity="1"><g transform="translate(148.641735, 246.203842)"><g><path d="M -19.476562 1.898438 L -19.6875 2.257812 C -19.886719 2.660156 -19.972656 2.933594 -20.019531 3.304688 C -20.144531 3.6875 -20.222656 4.101562 -20.203125 4.515625 C -20.203125 4.917969 -20.136719 5.363281 -20.015625 5.679688 C -19.933594 6 -19.808594 6.316406 -19.613281 6.617188 C -19.511719 6.917969 -19.335938 7.203125 -19.128906 7.441406 C -18.800781 7.996094 -18.3125 8.359375 -17.945312 8.707031 C -17.492188 9.078125 -17.078125 9.355469 -16.640625 9.652344 C -16.1875 9.921875 -15.75 10.214844 -15.335938 10.394531 C -14.730469 10.734375 -14.164062 10.980469 -13.609375 11.152344 C -12.890625 11.472656 -11.738281 11.945312 -11.628906 11.882812 L -10.703125 12.441406 L -9.234375 10.15625 C -9.070312 9.863281 -8.953125 9.640625 -8.847656 9.480469 L -8.382812 8.792969 C -7.808594 7.941406 -7.230469 7.128906 -6.566406 6.238281 L -2.714844 0.511719 C -2.265625 -0.15625 -1.84375 -0.738281 -1.402344 -1.441406 C -1.246094 -1.671875 -1.082031 -1.964844 -0.882812 -2.261719 C -1.144531 -2.273438 -1.257812 -2.550781 -1.488281 -2.503906 C -1.851562 -2.511719 -2.171875 -2.429688 -2.402344 -2.683594 C -2.5625 -2.792969 -2.5 -3.085938 -2.554688 -3.253906 C -2.691406 -3.445312 -2.875 -3.46875 -3.054688 -3.554688 C -3.121094 -3.601562 -4.039062 -3.484375 -4.027344 -4.242188 C -4.359375 -3.398438 -4.753906 -2.664062 -5.25 -1.828125 C -5.429688 -1.511719 -5.605469 -1.296875 -5.683594 -1.082031 L -5.898438 -0.761719 C -6.007812 -0.5 -6.171875 -0.308594 -6.371094 -0.0078125 C -6.726562 0.519531 -7.136719 1.078125 -7.515625 1.59375 L -7.5625 1.5625 C -8.128906 1.3125 -8.726562 1.011719 -9.394531 0.761719 C -10.316406 0.445312 -11.144531 0.0859375 -12.144531 -0.117188 C -12.652344 -0.257812 -13.140625 -0.421875 -13.703125 -0.429688 C -14.203125 -0.53125 -14.710938 -0.574219 -15.386719 -0.558594 C -15.671875 -0.484375 -15.925781 -0.453125 -16.292969 -0.402344 C -16.703125 -0.34375 -17.015625 -0.21875 -17.402344 -0.046875 C -17.695312 0.09375 -18.035156 0.296875 -18.359375 0.582031 C -18.710938 0.808594 -18.953125 1.117188 -19.175781 1.402344 L -19.363281 1.675781 Z M -16.195312 3.371094 L -16.023438 3.21875 L -15.839844 3.144531 C -15.5625 3.027344 -15.230469 2.984375 -14.769531 2.992188 C -14.476562 2.957031 -14.117188 2.964844 -13.671875 3.097656 C -13.101562 3.246094 -12.574219 3.300781 -12.179688 3.464844 C -11.519531 3.675781 -11.03125 3.839844 -10.609375 4.054688 L -9.710938 4.457031 L -10.652344 5.863281 C -11.132812 6.574219 -11.613281 7.289062 -12.054688 7.992188 L -12.070312 8.015625 C -12.507812 7.820312 -12.957031 7.652344 -13.34375 7.425781 C -13.617188 7.339844 -13.902344 7.21875 -14.195312 7.054688 L -15.230469 6.359375 C -15.558594 6.101562 -15.78125 5.886719 -15.941406 5.679688 C -16.070312 5.523438 -16.222656 5.355469 -16.445312 5.039062 L -16.589844 4.109375 L -16.425781 3.71875 L -16.292969 3.472656 Z M -16.195312 3.371094 "/></g></g></g></svg>